name analog
datacolumns 19
datarows 23
range 0.20800000000000002 0.219
endheader
time	ground_force_vx	ground_force_vy	ground_force_vz	ground_force_px	ground_force_py	ground_force_pz	l_ground_force_vx	l_ground_force_vy	l_ground_force_vz	l_ground_force_px	l_ground_force_py	l_ground_force_pz	ground_torque_x	ground_torque_y	ground_torque_z	l_ground_torque_x	l_ground_torque_y	l_ground_torque_z
0.20800000000000002	-0.0	-0.0	-0.0	15.742584228515623	42.02805709838867	-383.8365478515625	5.588779449462891	-45.50119400024414	-383.7176513671875	-0.0	-0.0	-0.0	-0.0	-0.0	-0.0	82057.3984375	-29784.88671875	184.4247283935547
0.2085	-0.0	-0.0	-0.0	16.93220329284668	41.427860260009766	-384.6129760742188	7.201261520385742	-44.618072509765625	-381.8760681152344	-0.0	-0.0	-0.0	-0.0	-0.0	-0.0	81605.9453125	-29748.689453125	344.5110778808594
0.209	-0.0	-0.0	-0.0	18.21697998046875	41.1782455444336	-384.0005493164063	7.540416717529297	-44.25746154785156	-383.90863037109375	-0.0	-0.0	-0.0	-0.0	-0.0	-0.0	82084.765625	-29793.265625	385.0801086425781
0.2095	-0.0	-0.0	-0.0	19.353199005126957	40.77989959716797	-385.65081787109375	7.346912384033203	-44.192867279052734	-388.1613159179688	-0.0	-0.0	-0.0	-0.0	-0.0	-0.0	83062.625	-30210.087890625	312.2091979980469
0.21	-0.0	-0.0	-0.0	19.673498153686523	41.39333724975586	-384.4465637207031	7.346672058105469	-44.28873443603516	-394.4771118164063	-0.0	-0.0	-0.0	-0.0	-0.0	-0.0	84182.5546875	-30716.2265625	252.8833465576172
0.2105	-0.0	-0.0	-0.0	18.76279830932617	41.83072280883789	-389.3709411621094	5.960041999816895	-44.90776062011719	-398.0328369140625	-0.0	-0.0	-0.0	-0.0	-0.0	-0.0	85257.5859375	-31188.45703125	-104.21774291992188
0.211	-0.0	-0.0	-0.0	17.39122772216797	43.21439743041992	-394.0366821289063	4.476159572601318	-45.66231536865234	-401.3350830078125	-0.0	-0.0	-0.0	-0.0	-0.0	-0.0	85920.40625	-31307.109375	-483.0394287109375
0.2115	-0.0	-0.0	-0.0	15.409990310668944	44.67774200439453	-397.0848388671875	2.6037280559539795	-46.69831466674805	-404.0627746582031	-0.0	-0.0	-0.0	-0.0	-0.0	-0.0	86069.0390625	-31204.162109375	-880.6714477539062
0.212	-0.0	-0.0	-0.0	12.79515266418457	46.371185302734375	-404.4256591796875	1.412351369857788	-47.69371032714844	-405.2042541503906	-0.0	-0.0	-0.0	-0.0	-0.0	-0.0	86233.875	-30999.294921875	-1057.3541259765625
0.2125	-0.0	-0.0	-0.0	9.479677200317385	48.102840423583984	-409.1841735839844	0.6209754943847656	-48.20671081542969	-406.03619384765625	-0.0	-0.0	-0.0	-0.0	-0.0	-0.0	86092.9140625	-30926.498046875	-1277.0592041015625
0.213	-0.0	-0.0	-0.0	7.098115921020508	48.76976013183594	-414.5566101074219	0.6037277579307556	-48.15903854370117	-405.109619140625	-0.0	-0.0	-0.0	-0.0	-0.0	-0.0	86163.28125	-30970.2421875	-1309.05517578125
0.2135	-0.0	-0.0	-0.0	5.860950469970703	49.199981689453125	-418.6874694824219	1.3654669523239136	-48.07066345214844	-406.9236755371094	-0.0	-0.0	-0.0	-0.0	-0.0	-0.0	86146.8125	-30936.04296875	-1292.61181640625
0.214	-0.0	-0.0	-0.0	4.665487289428711	49.04485321044922	-421.880126953125	1.8155478239059448	-48.553340911865234	-407.0413513183594	-0.0	-0.0	-0.0	-0.0	-0.0	-0.0	86221.9140625	-31088.912109375	-1078.9466552734375
0.2145	-0.0	-0.0	-0.0	4.103683471679688	48.97227096557617	-422.037109375	2.188194751739502	-48.45328521728516	-409.4617614746094	-0.0	-0.0	-0.0	-0.0	-0.0	-0.0	86895.8828125	-31087.169921875	-1130.0736083984375
0.215	-0.0	-0.0	-0.0	4.279050350189209	47.88302230834961	-422.0379333496094	2.2299516201019287	-48.84757995605469	-411.3005981445313	-0.0	-0.0	-0.0	-0.0	-0.0	-0.0	87456.1640625	-31596.17578125	-1130.1612548828125
0.2155	-0.0	-0.0	-0.0	4.575453758239746	47.50104904174805	-426.4593505859375	1.7271645069122314	-49.08343505859375	-414.5567932128906	-0.0	-0.0	-0.0	-0.0	-0.0	-0.0	87858.4921875	-31980.333984375	-1213.533935546875
0.216	-0.0	-0.0	-0.0	5.1742095947265625	47.05825424194336	-424.9560241699219	1.7924458980560305	-48.66525268554688	-416.35296630859375	-0.0	-0.0	-0.0	-0.0	-0.0	-0.0	88465.7421875	-32065.310546875	-1441.0560302734375
0.2165	-0.0	-0.0	-0.0	6.175972938537598	46.98968124389648	-423.81591796875	1.5498716831207275	-48.68349838256836	-417.657470703125	-0.0	-0.0	-0.0	-0.0	-0.0	-0.0	88766.59375	-32090.435546875	-1500.5936279296875
0.217	-0.0	-0.0	-0.0	6.670099258422852	46.41412353515625	-420.0298767089844	1.886307716369629	-48.17229461669922	-416.6299133300781	-0.0	-0.0	-0.0	-0.0	-0.0	-0.0	88553.0625	-32320.3203125	-1450.405029296875
0.2175	-0.0	-0.0	-0.0	8.025057792663574	45.54757690429688	-419.6603088378906	2.707983016967773	-48.03782272338867	-415.5822448730469	-0.0	-0.0	-0.0	-0.0	-0.0	-0.0	88524.015625	-32679.439453125	-1263.966552734375
0.218	-0.0	-0.0	-0.0	8.294955253601074	44.69971084594727	-416.3092651367188	3.945485830307007	-47.35930633544922	-416.59564208984375	-0.0	-0.0	-0.0	-0.0	-0.0	-0.0	88146.3828125	-32255.271484375	-1091.2437744140625
0.2185	-0.0	-0.0	-0.0	9.791973114013672	43.69506454467773	-413.8430480957031	4.794541835784912	-46.63385009765625	-414.8085021972656	-0.0	-0.0	-0.0	-0.0	-0.0	-0.0	88199.296875	-32236.419921875	-786.072998046875
0.219	-0.0	-0.0	-0.0	10.215246200561523	42.93696594238281	-411.1910095214844	7.077650547027588	-45.70844268798828	-415.4904174804688	-0.0	-0.0	-0.0	-0.0	-0.0	-0.0	88280.7265625	-32603.099609375	-339.3052062988281
